<svg xmlns="http://www.w3.org/2000/svg" xmlns:xlink="http://www.w3.org/1999/xlink" aria-hidden="true" style="position: absolute; width: 0; height: 0; overflow: hidden;" version="1.1">
  <defs>
    <symbol id="full" viewBox="0 0 376 178">
      <g class="signet" style="fill: currentColor">
        <path class="cls-2" d="M128,56.1244,89,33.6077a12,12,0,0,0-12,0L38,56.1243a12.0339,12.0339,0,0,0-6,10.3924V111.55a12.0333,12.0333,0,0,0,6,10.3923L77,144.459a12,12,0,0,0,12,0l39-22.5167a12.0333,12.0333,0,0,0,6-10.3923V66.5167A12.0336,12.0336,0,0,0,128,56.1244ZM126,111.55a4,4,0,0,1-2,3.4641L85,137.5308a4,4,0,0,1-4,0L42,115.0141a4,4,0,0,1-2-3.4641V66.5167a4,4,0,0,1,2-3.4641L81,40.5359a4,4,0,0,1,4,0l39,22.5167a4,4,0,0,1,2,3.4641Z"/>
        <path class="cls-2" d="M106.0216,102.0713h-2.866a3.9993,3.9993,0,0,0-1.9246.4935L83.95,112.05,64,100.5315V77.554L83.95,66.0354,101.239,75.49a4.0007,4.0007,0,0,0,1.9192.4905h2.8633a2,2,0,0,0,2-2V71.2691a2,2,0,0,0-1.04-1.7547L87.793,59.0188a8.0391,8.0391,0,0,0-7.8428.09L60,70.6262A8.0245,8.0245,0,0,0,56,77.5549v22.976a8,8,0,0,0,4,6.9283l19.95,11.5186a8.0429,8.0429,0,0,0,7.8433.0879l19.19-10.5312a2,2,0,0,0,1.0377-1.7533v-2.71A2,2,0,0,0,106.0216,102.0713Z"/>
      </g>
      
    </symbol>
 
  </defs>
</svg>
